<svg xmlns="http://www.w3.org/2000/svg" width="32" height="32" viewBox="0 0 32 32">
    <g fill="#FFF" fill-rule="evenodd">
        <path d="M9.5 9.582l7.618 12.995A5.5 5.5 0 0 1 9.5 17.5V9.582zM15 1a5.5 5.5 0 0 1 5.5 5.5v11a5.475 5.475 0 0 1-1.015 3.184L9.925 4.376A5.502 5.502 0 0 1 15 1z"/>
        <path fill-rule="nonzero" d="M6.5 10a.5.5 0 0 1 .492.41L7 10.5v7a8 8 0 0 0 11.389 7.249l.508.866a9 9 0 0 1-12.893-7.85L6 17.5v-7a.5.5 0 0 1 .5-.5zm17 0a.5.5 0 0 1 .492.41l.008.09v7a8.972 8.972 0 0 1-2.645 6.373l-.525-.895a7.97 7.97 0 0 0 2.166-5.229L23 17.5v-7a.5.5 0 0 1 .5-.5zM6.247 1.069a.5.5 0 0 1 .632.105l.052.073L24.126 30.58a.5.5 0 0 1-.81.58l-.053-.074L6.07 1.753a.5.5 0 0 1 .178-.684zM20.5 31a.5.5 0 0 1 .09.992L20.5 32h-11a.5.5 0 0 1-.09-.992L9.5 31h11z"/>
        <path fill-rule="nonzero" d="M15.5 25.5v6h-1v-6z"/>
    </g>
</svg>
