<svg xmlns="http://www.w3.org/2000/svg" width="180" height="40" viewBox="0 0 180 40">
    <path fill="#825EEB" fill-rule="evenodd" d="M11.164.573a2.061 2.061 0 0 1 2.644 0l22.629 18.935a1.324 1.324 0 0 1-.002 2.035L18.908 36.2s-4.126 3.624-9.022 3.4c-4.164-.26-5.605-1.578-6.065-2.145l-.014-.014a2.016 2.016 0 0 1 .252-2.849l7.05-5.895-2.892-2.46a13.996 13.996 0 0 1-4.704-10.476c0-1.328.082-3.665 1.098-4.353a2.061 2.061 0 0 1 2.643.002l15.51 12.982a5.35 5.35 0 0 0 6.861 0l2.74-2.292a2.05 2.05 0 0 0-.005-3.151l-1.364-1.14a5.39 5.39 0 0 0-6.916.006l-2.613 2.191a.935.935 0 0 1-1.2 0l-5.497-4.606a13.996 13.996 0 0 1-4.703-10.475c0-1.33.081-3.667 1.097-4.353zm57.902 13.205c2.282 0 4.367.79 5.872 2.223 1.507 1.436 2.336 3.427 2.336 5.608 0 .346-.029.763-.08 1.194a1.15 1.15 0 0 1-1.141 1.015h-11.22c.17 1.12.62 2.07 1.302 2.755.737.739 2.094 1.13 3.22 1.13 1.786 0 2.864-.655 3.76-1.709a1.148 1.148 0 0 1 1.514-.2l1.194.806a1.14 1.14 0 0 1 .244 1.673c-1.857 2.236-3.99 3.21-7.033 3.21-1.259 0-2.439-.215-3.507-.638a7.828 7.828 0 0 1-2.715-1.787 7.936 7.936 0 0 1-1.751-2.74c-.411-1.069-.62-2.245-.62-3.496 0-2.473.882-4.76 2.482-6.44 1.602-1.679 3.783-2.604 6.143-2.604zm45.127-5.557c.634 0 1.149.513 1.149 1.145v20.588c0 .633-.515 1.145-1.149 1.145H111.8a1.147 1.147 0 0 1-1.148-1.145v-.482c-.526.627-1.22 1.121-2.07 1.47a7.617 7.617 0 0 1-2.827.54c-2.16 0-4.167-.928-5.647-2.614-1.466-1.668-2.272-3.906-2.272-6.301 0-2.34.8-4.534 2.256-6.178 1.49-1.684 3.523-2.61 5.727-2.61 1.473 0 3.491.502 4.833 1.902V9.366c0-.632.514-1.145 1.148-1.145zm58.476 0c.634 0 1.148.513 1.148 1.145v20.588c0 .633-.514 1.145-1.148 1.145h-2.394a1.147 1.147 0 0 1-1.148-1.145v-.482c-.526.627-1.22 1.121-2.07 1.47a7.617 7.617 0 0 1-2.826.54c-2.162 0-4.167-.928-5.648-2.614-1.465-1.668-2.272-3.906-2.272-6.301 0-2.34.8-4.534 2.256-6.178 1.49-1.684 3.524-2.61 5.728-2.61 1.472 0 3.49.502 4.832 1.902V9.366c0-.632.514-1.145 1.148-1.145zm-122.28 0c2.236 0 4.767.699 6.785 2.11.509.437.531 1.216.051 1.684l-1.499 1.462a1.15 1.15 0 0 1-1.568.036c-1.504-.994-2.777-1.255-3.61-1.255-.775 0-1.483.196-1.994.554-.557.39-.851.947-.851 1.611 0 1.474 1.618 2.014 3.183 2.536.203.068.414.138.614.208 1.648.564 3.368 1.205 4.704 2.284 1.567 1.265 2.329 2.91 2.329 5.032 0 2.229-.972 4.076-2.81 5.342-1.529 1.054-3.625 1.657-5.751 1.657-2.933 0-5.455-.97-7.776-2.962a1.141 1.141 0 0 1-.051-1.683l1.499-1.463a1.15 1.15 0 0 1 1.568-.036c.588.524 1.214 1.022 1.846 1.37.91.504 1.846.739 2.946.739.938 0 1.794-.237 2.41-.667.704-.49 1.076-1.218 1.076-2.106 0-1.853-1.96-2.568-4.23-3.397l-.05-.018c-1.329-.495-2.983-1.11-4.206-2.136-1.362-1.14-2.023-2.636-2.023-4.572 0-1.99.796-3.641 2.302-4.778 1.326-1 3.138-1.551 5.105-1.551zm103.771 5.557c.345 0 .698.031 1.045.09.67.112 1.093.779.913 1.43l-.55 1.999a.96.96 0 0 1-1.147.674 3.447 3.447 0 0 0-.773-.093 3.59 3.59 0 0 0-2.397.949c-.048.043-.622.594-.705 2.207v8.92c0 .633-.514 1.145-1.149 1.145h-2.393a1.146 1.146 0 0 1-1.148-1.145V15.306c0-.632.514-1.144 1.148-1.144h2.393c.635 0 1.149.512 1.149 1.144v.55c1.005-1.362 2.244-2.078 3.614-2.078zm-28.898-5.173c2.553 0 4.672.5 6.126 1.448 1.714 1.108 2.66 2.864 2.66 4.945 0 1.91-.984 3.47-2.705 4.302 1.064.392 1.96 1.048 2.598 1.908a5.284 5.284 0 0 1 1.035 3.179c0 1.294-.38 2.513-1.102 3.525-.7.981-1.718 1.772-2.946 2.288-1.463.605-3.4.9-5.922.9h-4.53a1.147 1.147 0 0 1-1.148-1.146V9.75c0-.632.515-1.144 1.149-1.144zm16.017 5.557c.634 0 1.149.512 1.149 1.144v14.648c0 .633-.515 1.145-1.149 1.145h-2.393a1.146 1.146 0 0 1-1.149-1.145V15.306c0-.632.514-1.144 1.149-1.144zm-52.015-.57c1.784 0 3.453.82 4.58 2.249 1.275 1.642 1.536 3.736 1.536 6.374v7.74c0 .632-.514 1.144-1.149 1.144h-2.388a1.147 1.147 0 0 1-1.148-1.144v-7.512c0-1.325-.04-2.698-.517-3.649-.388-.773-1.165-1.181-2.247-1.181-1.438 0-2.88.843-3.675 2.148v10.194c0 .632-.514 1.144-1.148 1.144h-2.389a1.146 1.146 0 0 1-1.148-1.144v-14.83c0-.632.514-1.145 1.148-1.145h2.389c.634 0 1.148.513 1.148 1.145v.79a6.465 6.465 0 0 1 5.008-2.324zm17.595 4.222h-.046c-1.313 0-2.408.54-3.168 1.56-.65.875-1.023 2.085-1.023 3.32 0 1.217.404 2.416 1.11 3.29.538.667 1.499 1.463 3.017 1.463a3.83 3.83 0 0 0 3.903-3.833v-1.967a3.83 3.83 0 0 0-3.793-3.833zm58.475 0h-.046c-1.313 0-2.408.54-3.167 1.56-.651.875-1.024 2.085-1.024 3.32 0 1.217.404 2.416 1.11 3.29.538.667 1.5 1.463 3.017 1.463a3.83 3.83 0 0 0 3.903-3.833v-1.967a3.83 3.83 0 0 0-3.793-3.833zm-38.86 3.737h-2.494v5.576h1.298c1.248-.003 2.501-.036 3.374-.47.848-.44 1.243-1.131 1.243-2.174 0-1.864-1.247-2.932-3.422-2.932zM69.47 17.393c-2.374 0-3.823 1.373-4.347 3.257h8.012c-.105-2.012-1.64-3.257-3.665-3.257zm55.661-4.816h-1.114v5.13h1.212c1.315 0 2.335-.216 3.031-.64.706-.432 1.064-1.074 1.064-1.91 0-.879-.305-1.54-.932-2.018-.847-.562-2.098-.562-3.548-.562zM141.28 8.22c.634 0 1.149.513 1.149 1.145v2.066c0 .632-.515 1.145-1.149 1.145h-2.393a1.146 1.146 0 0 1-1.149-1.145V9.366c0-.632.514-1.145 1.149-1.145z"/>
</svg>
