<svg xmlns="http://www.w3.org/2000/svg" xmlns:xlink="http://www.w3.org/1999/xlink" width="24" height="24" viewBox="0 0 24 24">
    <defs>
        <path id="b" d="M210 128.004a8.006 8.006 0 0 1 8.005-8.004h359.99a8.008 8.008 0 0 1 8.005 8.004v575.992a8.006 8.006 0 0 1-8.005 8.004h-359.99a8.008 8.008 0 0 1-8.005-8.004V128.004z"/>
        <filter id="a" width="146%" height="130.4%" x="-23%" y="-13.1%" filterUnits="objectBoundingBox">
            <feMorphology in="SourceAlpha" radius="3.5" result="shadowSpreadOuter1"/>
            <feOffset dy="9" in="shadowSpreadOuter1" result="shadowOffsetOuter1"/>
            <feGaussianBlur in="shadowOffsetOuter1" result="shadowBlurOuter1" stdDeviation="7.5"/>
            <feColorMatrix in="shadowBlurOuter1" result="shadowMatrixOuter1" values="0 0 0 0 0.129411765 0 0 0 0 0.133333333 0 0 0 0 0.258823529 0 0 0 0.04 0"/>
            <feMorphology in="SourceAlpha" operator="dilate" radius="4" result="shadowSpreadOuter2"/>
            <feOffset dy="9" in="shadowSpreadOuter2" result="shadowOffsetOuter2"/>
            <feGaussianBlur in="shadowOffsetOuter2" result="shadowBlurOuter2" stdDeviation="23"/>
            <feColorMatrix in="shadowBlurOuter2" result="shadowMatrixOuter2" values="0 0 0 0 0.129411765 0 0 0 0 0.133333333 0 0 0 0 0.258823529 0 0 0 0.08 0"/>
            <feMorphology in="SourceAlpha" operator="dilate" radius="1.5" result="shadowSpreadOuter3"/>
            <feOffset dy="24" in="shadowSpreadOuter3" result="shadowOffsetOuter3"/>
            <feGaussianBlur in="shadowOffsetOuter3" result="shadowBlurOuter3" stdDeviation="19"/>
            <feColorMatrix in="shadowBlurOuter3" result="shadowMatrixOuter3" values="0 0 0 0 0.129411765 0 0 0 0 0.133333333 0 0 0 0 0.258823529 0 0 0 0.12 0"/>
            <feMerge>
                <feMergeNode in="shadowMatrixOuter1"/>
                <feMergeNode in="shadowMatrixOuter2"/>
                <feMergeNode in="shadowMatrixOuter3"/>
            </feMerge>
        </filter>
    </defs>
    <g fill="none" fill-rule="evenodd">
        <g transform="translate(-234 -148)">
            <use fill="#000" filter="url(#a)" xlink:href="#b"/>
            <use fill="#FFF" xlink:href="#b"/>
        </g>
        <path fill="#825EEB" d="M-24-20c0-4.418 3.586-8 8.005-8h359.99A8.001 8.001 0 0 1 352-20v72H-24v-72z"/>
        <path fill="#FFF" d="M22.75 11.728L9.249.29a1.218 1.218 0 0 0-1.577 0c-.606.414-.655 1.826-.655 2.63a8.502 8.502 0 0 0 2.806 6.327l3.28 2.783a.552.552 0 0 0 .716 0l1.559-1.324a3.185 3.185 0 0 1 4.126-.004l.814.689c.588.495.59 1.407.002 1.904l-1.634 1.384a3.161 3.161 0 0 1-4.093 0L5.339 6.837a1.218 1.218 0 0 0-1.577-.001c-.606.415-.655 1.827-.655 2.63a8.503 8.503 0 0 0 2.806 6.328L7.64 17.28 3.433 20.84a1.229 1.229 0 0 0-.15 1.72l.008.01c.274.342 1.134 1.138 3.618 1.295 2.921.136 5.383-2.054 5.383-2.054l10.456-8.855a.806.806 0 0 0 .002-1.229"/>
    </g>
</svg>
