<svg xmlns="http://www.w3.org/2000/svg" width="48" height="48" viewBox="0 0 48 48">
    <g fill="none" fill-rule="evenodd" transform="translate(-656 -112)">
        <path fill="#F6F8FC" d="M0 0h1360v960H0z"/>
        <circle cx="680" cy="136" r="40" fill="#FFF"/>
        <path fill="#825EEB" fill-rule="nonzero" d="M701.5 135.457l-27.002-22.877a2.436 2.436 0 0 0-3.154-.001c-1.212.83-1.31 3.654-1.31 5.26 0 5.029 2.169 9.546 5.612 12.656l6.56 5.565c.414.351 1.018.351 1.431 0l3.118-2.647a6.371 6.371 0 0 1 8.253-.008l1.627 1.377a2.497 2.497 0 0 1 .006 3.808l-3.27 2.768a6.322 6.322 0 0 1-8.185 0l-18.508-15.685a2.436 2.436 0 0 0-3.154-.001c-1.212.83-1.31 3.654-1.31 5.26 0 5.03 2.17 9.547 5.613 12.656l3.45 2.972-8.41 7.122a2.457 2.457 0 0 0-.301 3.442l.015.017c.549.686 2.27 2.278 7.237 2.591 5.842.272 10.766-4.107 10.766-4.107l20.913-17.71c.757-.644.76-1.816.002-2.458"/>
    </g>
</svg>
