<svg xmlns="http://www.w3.org/2000/svg" width="41" height="40" viewBox="0 0 41 40">
    <path fill="#353761" d="M38.416 19.547L15.915.483c-.76-.644-1.868-.644-2.628 0-1.01.69-1.092 3.044-1.092 4.382 0 4.192 1.807 7.956 4.677 10.547l5.466 4.638c.345.293.848.292 1.193 0l2.598-2.206c1.987-1.688 4.888-1.69 6.878-.007l1.356 1.148c.98.826.982 2.345.004 3.173l-2.724 2.307c-1.973 1.67-4.849 1.67-6.821 0L9.398 11.395c-.76-.645-1.867-.645-2.628-.002-1.01.692-1.091 3.045-1.091 4.383 0 4.192 1.807 7.956 4.677 10.547L13.23 28.8l-7.01 5.935c-.853.723-.966 2.006-.25 2.868l.014.015c.457.571 1.89 1.898 6.03 2.159 4.869.226 8.972-3.423 8.972-3.423l17.427-14.758c.631-.537.634-1.513.002-2.049"/>
</svg>
